<svg xmlns="http://www.w3.org/2000/svg" viewBox="0 0 100 100">
  <g fill="#e6d947">
    <path d="M79.44 51.22C79.16 61.16 76.29 74.44 68.21 79.71C60.13 84.98 39.72 87.59 30.95 82.84C22.17 78.09 15.24 61.26 15.55 51.22C15.86 41.18 23.75 27.79 32.81 22.59C41.86 17.4 62.1 15.27 69.87 20.04C77.64 24.81 79.72 41.27 79.44 51.22Z"/>
  </g>
  <g fill="#111006">
    <path d="M44.16 47.79C44.44 53.64 44.21 54.17 41.33 54.31C38.45 54.45 38.17 53.94 37.89 48.09C37.6 42.24 37.84 41.7 40.72 41.56C43.6 41.43 43.88 41.93 44.16 47.79Z"/>
    <path d="M62.06 48.38C62.42 53.66 62.21 54.15 59.44 54.34C56.68 54.53 56.4 54.07 56.04 48.79C55.68 43.5 55.89 43.02 58.66 42.83C61.42 42.64 61.7 43.09 62.06 48.38Z"/>
  </g>
</svg>
